<svg width="1254" height="1254" viewBox="85 232 1140 783" xmlns="http://www.w3.org/2000/svg" role="img" aria-label="Design Extractor MD logo">
  <path fill="#ffffff" fill-rule="evenodd" clip-rule="evenodd" d="
    M 85.0 232.0 L 85.0 1015.0 L 247.0 1015.0 L 247.0 580.0 L 431.0 968.0 L 613.0 581.0 L 615.0 1015.0 L 904.0 1015.0 L 984.0 1002.0 L 1044.0 978.0 L 1093.0 946.0 L 1133.0 908.0 L 1170.0 856.0 L 1202.0 781.0 L 1218.0 707.0 L 1225.0 612.0 L 1219.0 501.0 L 1201.0 428.0 L 1171.0 366.0 L 1128.0 313.0 L 1074.0 273.0 L 1009.0 246.0 L 935.0 233.0 L 600.0 232.0 L 430.0 600.0 L 262.0 232.0 Z
    M 1070.0 388.0 L 1071.0 657.0 L 993.0 656.0 L 993.0 529.0 L 791.0 731.0 L 791.0 884.0 L 701.0 885.0 L 700.0 710.0 L 936.0 473.0 L 809.0 473.0 L 808.0 390.0 Z
  "/>
</svg>
